<svg xmlns="http://www.w3.org/2000/svg" width="427" height="85" viewBox="0 0 426.6 85.1"><style>.a{fill:#FFF;}</style><path d="M33.2 57c-0.9 2.1-2.5 3.7-4.7 4.8 -2.3 1.2-4.9 1.7-7.9 1.7 -3.8 0-7-0.7-9.6-2 -2.6-1.3-4.7-3.1-6.3-5.3 -1.6-2.2-2.8-4.7-3.5-7.6C0.4 45.7 0 42.8 0 39.8c0-3.6 0.5-6.8 1.6-9.8 1.1-3 2.5-5.5 4.3-7.6 1.8-2.1 3.9-3.7 6.4-4.9 2.4-1.2 5.1-1.7 7.9-1.7 5.8 0 10.1 2.3 13 7V16.9h12.2v46.7c0 3.5-0.6 6.6-1.8 9.3 -1.2 2.7-2.8 4.9-4.9 6.7s-4.5 3.1-7.3 4.1c-2.8 0.9-5.8 1.4-9 1.4s-6.2-0.5-8.9-1.4c-2.8-0.9-5.1-2.2-7.1-3.9 -2-1.7-3.5-3.7-4.7-6.1C0.6 71.4 0 68.7 0 65.7h11.4c0 2.8 0.9 5 2.8 6.5 1.8 1.5 4.3 2.3 7.4 2.3 3.3 0 6-0.9 8.3-2.7 2.3-1.8 3.4-4.2 3.4-7.3V57zM23.1 54c3 0 5.5-1.1 7.5-3.4 2-2.3 3-5.4 3-9.4 0-9.9-3.5-14.9-10.4-14.9s-10.4 4.7-10.4 14.1c0 4.1 1 7.4 3 9.9C17.6 52.7 20.1 54 23.1 54z" class="a"/><path d="M104.5 63.2V35.2c0-2.8-0.7-5.1-2-6.9 -1.3-1.8-3.1-2.6-5.3-2.6 -2.3 0-4.1 0.9-5.6 2.8 -1.5 1.9-2.2 4.2-2.2 7.1v27.6h-12.2V35.3c0-1.9-0.1-3.4-0.4-4.6 -0.3-1.2-0.7-2.1-1.3-2.8 -0.6-0.7-1.4-1.2-2.3-1.5 -0.9-0.3-2.1-0.4-3.4-0.4 -5 0-7.4 3-7.4 9v28.1H50.3V16.9h11.5v6.8c1.6-3.1 3.4-5.2 5.6-6.3 2.2-1.1 4.8-1.7 7.9-1.7 1.6 0 3 0.1 4.2 0.4 1.2 0.3 2.3 0.7 3.3 1.3 1 0.6 1.9 1.4 2.8 2.3 0.9 0.9 1.8 2.1 2.6 3.4 1.3-2.6 2.9-4.4 5-5.6 2.1-1.2 4.6-1.7 7.5-1.7 2.3 0 4.4 0.4 6.4 1.2 1.9 0.8 3.6 1.9 5 3.3 1.4 1.4 2.5 3.1 3.2 4.9 0.8 1.9 1.2 3.9 1.2 6v32.1H104.5z" class="a"/><path d="M144.1 64.4c-3.8 0-7.1-0.6-10.1-1.8 -2.9-1.2-5.4-2.9-7.5-5 -2-2.1-3.6-4.7-4.7-7.7 -1.1-3-1.6-6.3-1.6-9.9 0-3.6 0.5-7 1.6-10 1.1-3 2.7-5.6 4.7-7.7 2.1-2.1 4.6-3.8 7.5-4.9 2.9-1.2 6.2-1.7 9.9-1.7 3.6 0 6.9 0.6 9.8 1.7 2.9 1.2 5.3 2.8 7.4 4.9 2 2.1 3.6 4.7 4.7 7.7 1.1 3 1.6 6.4 1.6 10.1 0 3.7-0.6 7-1.6 10s-2.7 5.5-4.7 7.7c-2 2.1-4.5 3.8-7.4 4.9C150.9 63.8 147.7 64.4 144.1 64.4zM144.1 54.1c7.5 0 11.2-4.7 11.2-14.1 0-9.3-3.7-14-11.2-14 -7.5 0-11.2 4.7-11.2 14C132.9 49.4 136.6 54.1 144.1 54.1z" class="a"/><path d="M203.6 63.2l-0.1-5.6c-2.8 4.6-7.1 6.9-12.9 6.9 -2.9 0-5.6-0.6-8.1-1.7 -2.4-1.1-4.5-2.8-6.3-4.9 -1.8-2.1-3.1-4.7-4.1-7.8 -1-3.1-1.5-6.5-1.5-10.4 0-3.5 0.4-6.7 1.3-9.6 0.8-2.9 2.1-5.4 3.7-7.6 1.6-2.1 3.6-3.8 6-4.9 2.4-1.2 5-1.7 8-1.7 5.7 0 10.3 2.4 13.7 7.2V0h12v63.2H203.6zM193.5 54.4c2.9 0 5.4-1.2 7.4-3.7 2-2.4 3-5.6 3-9.6 0-10-3.4-15-10.2-15 -7 0-10.5 4.8-10.5 14.3 0 4.1 1 7.5 2.9 10.1C187.9 53.1 190.4 54.4 193.5 54.4z" class="a"/><path d="M248.1 30.9c-0.3-2.1-1.1-3.7-2.4-4.7 -1.3-1-3.2-1.5-5.9-1.5 -2.5 0-4.4 0.3-5.7 0.9 -1.3 0.6-1.9 1.6-1.9 3.1 0 1.3 0.6 2.3 1.9 3 1.3 0.8 3.1 1.5 5.6 2.2 4 1.1 7.4 2.1 10.2 2.9 2.8 0.8 5 1.7 6.6 2.8 1.7 1.1 2.9 2.4 3.6 4 0.7 1.6 1.1 3.7 1.1 6.4 0 4.1-1.7 7.6-5.2 10.3 -3.4 2.7-8.6 4.1-15.3 4.1 -3.3 0-6.3-0.4-9-1.1 -2.7-0.8-5-1.8-6.9-3.2s-3.4-3.1-4.4-5.1c-1-2-1.6-4.2-1.6-6.6h12.6c0 2.2 0.9 3.9 2.6 5.1 1.7 1.2 4 1.8 6.7 1.8 2.3 0 4.3-0.4 6-1.1 1.7-0.7 2.5-1.8 2.5-3.3 0-1.7-0.6-2.9-1.8-3.7 -1.2-0.8-3.1-1.4-5.6-2 -4.5-1-8.1-2.1-10.9-3.1 -2.8-1.1-4.9-2.3-6.4-3.6 -1.5-1.3-2.6-2.8-3.1-4.3 -0.5-1.6-0.8-3.3-0.8-5.3 0-1.8 0.4-3.4 1.1-5 0.7-1.6 1.9-2.9 3.4-4.1 1.6-1.2 3.6-2.1 6.1-2.9 2.5-0.7 5.6-1.1 9.2-1.1 6.6 0 11.5 1.3 14.6 4 3.1 2.7 4.8 6.4 5.1 11.2H248.1z" class="a"/><path d="M290.4 32.7h11.4v13.2c0 2.4-0.4 4.8-1.1 7 -0.7 2.2-1.8 4.2-3.4 5.9 -1.5 1.7-3.5 3.1-5.8 4.1s-5.2 1.5-8.4 1.5c-3.4 0-6.3-0.5-8.6-1.5 -2.4-1-4.3-2.3-5.9-4 -1.5-1.7-2.6-3.7-3.3-5.9s-1-4.6-1-7.1V4.4h12V16.9h25.6v8.6H276.2v19c0 2.9 0.5 5.2 1.6 6.8 1.1 1.6 2.9 2.4 5.4 2.4 2.4 0 4.2-0.8 5.4-2.4 1.2-1.6 1.7-3.8 1.7-6.7V32.7z" class="a"/><path d="M328.9 64.4c-3.8 0-7.1-0.6-10.1-1.8 -2.9-1.2-5.4-2.9-7.5-5 -2-2.1-3.6-4.7-4.7-7.7 -1.1-3-1.6-6.3-1.6-9.9 0-3.6 0.5-7 1.6-10 1.1-3 2.7-5.6 4.7-7.7 2.1-2.1 4.6-3.8 7.5-4.9 2.9-1.2 6.2-1.7 9.9-1.7 3.6 0 6.9 0.6 9.8 1.7 2.9 1.2 5.3 2.8 7.4 4.9 2 2.1 3.6 4.7 4.7 7.7 1.1 3 1.6 6.4 1.6 10.1 0 3.7-0.5 7-1.6 10 -1.1 3-2.7 5.5-4.7 7.7 -2 2.1-4.5 3.8-7.4 4.9C335.7 63.8 332.5 64.4 328.9 64.4zM328.9 54.1c7.5 0 11.2-4.7 11.2-14.1 0-9.3-3.7-14-11.2-14 -7.5 0-11.2 4.7-11.2 14C317.7 49.4 321.4 54.1 328.9 54.1z" class="a"/><path d="M356.4 63.2V16.9h11.5v5.5c1-1.6 2.1-2.8 3.1-3.7 1.1-0.9 2.2-1.6 3.4-2 1.2-0.5 2.3-0.8 3.5-0.9 1.2-0.1 2.4-0.2 3.7-0.2h1.6V28.2c-1.1-0.2-2.3-0.3-3.4-0.3 -7.5 0-11.2 3.7-11.2 11.2v24.1H356.4z" class="a"/><path d="M394.7 43.2c0.2 3.5 1.2 6.3 3.1 8.4 1.8 2.1 4.3 3.1 7.3 3.1 2 0 3.8-0.5 5.3-1.4 1.5-0.9 2.5-2.2 3-3.8h12.6c-1.4 4.8-3.9 8.4-7.5 11 -3.6 2.6-7.8 3.9-12.8 3.9 -15.4 0-23.1-8.4-23.1-25.2 0-3.6 0.5-6.8 1.5-9.7 1-2.9 2.5-5.4 4.4-7.4 1.9-2.1 4.2-3.6 7-4.7 2.8-1.1 5.9-1.6 9.5-1.6 7.1 0 12.5 2.3 16.2 6.9 3.7 4.6 5.5 11.5 5.5 20.7H394.7zM414 35.5c-0.1-1.7-0.4-3.2-0.9-4.5 -0.5-1.3-1.2-2.3-2.1-3.2 -0.9-0.8-1.9-1.5-3-1.9 -1.1-0.4-2.3-0.6-3.5-0.6 -2.4 0-4.6 0.9-6.3 2.7 -1.8 1.8-2.8 4.3-3.1 7.5H414z" class="a"/></svg>