<?xml version="1.0" encoding="UTF-8" standalone="no"?>
<svg
   xmlns:dc="http://purl.org/dc/elements/1.1/"
   xmlns:cc="http://creativecommons.org/ns#"
   xmlns:rdf="http://www.w3.org/1999/02/22-rdf-syntax-ns#"
   xmlns:svg="http://www.w3.org/2000/svg"
   xmlns="http://www.w3.org/2000/svg"
   xmlns:sodipodi="http://sodipodi.sourceforge.net/DTD/sodipodi-0.dtd"
   xmlns:inkscape="http://www.inkscape.org/namespaces/inkscape"
   sodipodi:docname="new logo.svg"
   inkscape:version="1.0 (4035a4fb49, 2020-05-01)"
   id="svg8"
   version="1.1"
   viewBox="0 0 30.520658 43.995895"
   height="43.995895mm"
   width="30.520658mm">
  <defs
     id="defs2" />
  <sodipodi:namedview
     inkscape:window-maximized="1"
     inkscape:window-y="1341"
     inkscape:window-x="2391"
     inkscape:window-height="1373"
     inkscape:window-width="2560"
     showgrid="false"
     inkscape:document-rotation="0"
     inkscape:current-layer="layer1"
     inkscape:document-units="mm"
     inkscape:cy="-254.52764"
     inkscape:cx="-117.74903"
     inkscape:zoom="0.98994949"
     inkscape:pageshadow="2"
     inkscape:pageopacity="0.0"
     borderopacity="1.0"
     bordercolor="#666666"
     pagecolor="#ffffff"
     id="base" />
  <metadata
     id="metadata5">
    <rdf:RDF>
      <cc:Work
         rdf:about="">
        <dc:format>image/svg+xml</dc:format>
        <dc:type
           rdf:resource="http://purl.org/dc/dcmitype/StillImage" />
        <dc:title></dc:title>
      </cc:Work>
    </rdf:RDF>
  </metadata>
  <g
     transform="translate(-18.591353,-26.949968)"
     id="layer1"
     inkscape:groupmode="layer"
     inkscape:label="Layer 1">
    <g
       transform="matrix(0.08592982,0,0,0.08592982,11.853658,26.949968)"
       id="g1049">
      <g
         id="g953">
        <path
           style="fill:#a8a8a8;fill-opacity:1"
           d="m 362.998,183.583 13.179,-18.292 v -27.488 l -14.346,-13.386 14.346,-15.128 v -2.156 c 0,-8.746 -1.147,-17.235 -3.289,-25.332 L 345.498,63 360.262,53.286 C 342.477,25.792 311.544,7.5 276.545,7.5 h -43.76 c -35,0 -65.933,18.292 -83.717,45.786 l 2.431,16.964 -15.057,11.551 c -2.142,8.096 -3.289,16.586 -3.289,25.332 v 2.156 l 8.846,7.628 -8.846,20.886 v 27.488 l 14.846,14.257 -14.846,14.257 v 78.336 h 243.025 v -78.336 z"
           fill="#f0f0f0"
           id="path951" />
      </g>
      <g
         id="g957">
        <path
           style="fill:#858586;fill-opacity:1"
           d="m 276.545,7.5 h -43.76 c -35,0 -65.933,18.292 -83.717,45.786 l 2.431,16.964 -15.057,11.551 c -2.142,8.096 -3.289,16.586 -3.289,25.332 v 2.156 l 8.846,7.628 -8.846,20.886 v 27.488 l 14.846,14.257 -14.846,14.257 v 78.336 h 71.929 V 107.133 C 205.082,57.114 242.44,15.404 290.63,8.508 286.024,7.848 281.324,7.5 276.545,7.5 Z"
           fill="#e5e5e5"
           id="path955" />
      </g>
      <g
         id="g961">
        <path
           d="m 285.665,485.786 h -62 c -6.6,0 -12,-5.4 -12,-12 v -86.875 c 0,-6.6 5.4,-12 12,-12 h 62 c 6.6,0 12,5.4 12,12 v 86.875 c 0,6.6 -5.4,12 -12,12 z"
           fill="#666667"
           id="path959" />
      </g>
      <g
         id="g965">
        <path
           style="fill:#761919;fill-opacity:1"
           d="m 154.171,289.238 -15.98,16.183 c -11.81,11.96 -31.258,12.082 -43.218,0.272 -11.96,-11.81 -12.082,-31.258 -0.272,-43.218 l 15.98,-16.183 c 5.569,-5.639 14.739,-5.697 20.378,-0.128 l 22.983,22.696 c 5.64,5.569 5.698,14.739 0.129,20.378 z"
           fill="#7293df"
           id="path963" />
      </g>
      <g
         id="g969">
        <path
           style="fill:#ad1010;fill-opacity:1"
           d="m 357.825,289.238 15.98,16.183 c 11.81,11.96 31.258,12.082 43.218,0.272 11.96,-11.81 12.082,-31.258 0.272,-43.218 l -15.98,-16.183 c -5.569,-5.639 -14.739,-5.697 -20.378,-0.128 l -22.983,22.696 c -5.64,5.569 -5.698,14.739 -0.129,20.378 z"
           fill="#99b2e9"
           id="path967" />
      </g>
      <g
         id="g973">
        <path
           d="m 123.152,256 v 73.072 c 0,57.22 46.643,104.036 103.651,104.036 h 55.723 c 57.008,0 103.651,-46.816 103.651,-104.036 V 256 Z"
           fill="#a8a8a8"
           id="path971" />
      </g>
      <g
         id="g977">
        <path
           d="M 193.604,330.42 V 256 h -70.452 v 73.072 c 0,57.22 46.643,104.036 103.651,104.036 h 53.864 c -49.195,-8.03 -87.063,-51.133 -87.063,-102.688 z"
           fill="#858586"
           id="path975" />
      </g>
      <g
         id="g981">
        <path
           style="fill:#ad1010;fill-opacity:1"
           d="m 376.918,276.914 c -80.16,12.079 -161.68,12.079 -241.841,0 -17.288,-2.596 -28.804,-18.207 -25.69,-33.893 3.115,-15.705 18.536,-26.016 34.36,-23.645 74.413,11.213 150.087,11.213 224.5,0 15.824,-2.371 31.246,7.94 34.36,23.645 3.115,15.686 -8.401,31.297 -25.689,33.893 z"
           fill="#c1cff2"
           id="path979" />
      </g>
      <g
         id="g985">
        <path
           d="M 343.011,504.5 H 168.985 c -9.07,0 -15.357,-9.048 -12.192,-17.549 l 0.098,-0.264 c 5.47,-14.693 19.496,-24.437 35.174,-24.437 h 127.868 c 15.835,0 29.967,9.939 35.321,24.841 3.046,8.477 -3.236,17.409 -12.243,17.409 z"
           fill="#a8a8a8"
           id="path983" />
      </g>
      <g
         id="g989">
        <path
           d="m 219.148,486.951 0.098,-0.264 c 5.47,-14.693 19.496,-24.437 35.174,-24.437 h -62.355 c -15.678,0 -29.704,9.745 -35.174,24.437 l -0.098,0.264 c -3.165,8.5 3.122,17.549 12.192,17.549 h 62.355 c -9.07,0 -15.357,-9.049 -12.192,-17.549 z"
           fill="#858586"
           id="path987" />
      </g>
      <g
         id="g995">
        <g
           id="g993">
          <path
             style="fill:#761919;fill-opacity:1"
             d="m 188.069,260 c 0,-13.569 6.415,-25.725 16.545,-33.975 -20.348,-1.391 -40.654,-3.603 -60.867,-6.648 -15.825,-2.371 -31.246,7.94 -34.36,23.645 -3.114,15.686 8.402,31.297 25.69,33.893 19.993,3.013 40.07,5.273 60.19,6.783 -4.558,-6.884 -7.198,-15 -7.198,-23.698 z"
             fill="#99b2e9"
             id="path991" />
        </g>
      </g>
      <g
         id="g999">
        <path
           d="m 376.177,109.288 h -84.848 c -7.651,0 -13.911,6.26 -13.911,13.911 v 0.693 c 0,7.651 6.26,13.911 13.911,13.911 h 84.848 z"
           fill="#e5e5e5"
           id="path997" />
      </g>
      <g
         id="g1003">
        <path
           d="m 376.177,165.291 h -84.848 c -7.651,0 -13.911,6.26 -13.911,13.911 v 0.693 c 0,7.651 6.26,13.911 13.911,13.911 h 84.848 z"
           fill="#e5e5e5"
           id="path1001" />
      </g>
      <g
         id="g1007">
        <path
           d="m 360.262,53.286 h -68.933 c -7.651,0 -13.911,6.26 -13.911,13.911 v 0.693 c 0,7.651 6.26,13.911 13.911,13.911 h 81.559 c -2.707,-10.232 -7.01,-19.833 -12.626,-28.515 z"
           fill="#e5e5e5"
           id="path1005" />
      </g>
      <g
         id="g1011">
        <path
           d="m 133.152,137.803 h 87.515 c 7.651,0 13.911,-6.26 13.911,-13.911 v -0.693 c 0,-7.651 -6.26,-13.911 -13.911,-13.911 h -87.515 z"
           fill="#e5e5e5"
           id="path1009" />
      </g>
      <g
         id="g1015">
        <path
           d="m 133.152,109.288 h 71.929 v 28.515 h -71.929 z"
           fill="#c6c6c6"
           id="path1013" />
      </g>
      <g
         id="g1019">
        <path
           d="m 133.152,193.805 h 87.515 c 7.651,0 13.911,-6.26 13.911,-13.911 v -0.693 c 0,-7.651 -6.26,-13.911 -13.911,-13.911 h -87.515 z"
           fill="#e5e5e5"
           id="path1017" />
      </g>
      <g
         id="g1023">
        <path
           d="m 133.152,165.291 h 71.929 v 28.515 h -71.929 z"
           fill="#c6c6c6"
           id="path1021" />
      </g>
      <g
         id="g1027">
        <path
           d="m 136.441,81.801 h 84.226 c 7.651,0 13.911,-6.26 13.911,-13.911 v -0.693 c 0,-7.651 -6.26,-13.911 -13.911,-13.911 h -71.6 c -5.616,8.682 -9.919,18.283 -12.626,28.515 z"
           fill="#e5e5e5"
           id="path1025" />
      </g>
      <g
         id="g1031">
        <path
           d="m 221.009,53.304 c -0.115,-0.003 -0.226,-0.017 -0.342,-0.017 h -71.6 v 10e-4 c -0.664,1.027 -1.307,2.069 -1.934,3.121 -0.072,0.12 -0.143,0.24 -0.214,0.361 -1.254,2.125 -2.433,4.3 -3.53,6.521 -0.036,0.072 -0.072,0.144 -0.108,0.216 -0.545,1.11 -1.07,2.233 -1.575,3.366 -0.034,0.077 -0.068,0.155 -0.102,0.233 -1.015,2.295 -1.946,4.635 -2.789,7.016 -0.029,0.081 -0.058,0.162 -0.086,0.243 -0.856,2.439 -1.621,4.919 -2.288,7.438 h 71.949 c 2.707,-10.229 7.005,-19.821 12.619,-28.499 z"
           fill="#c6c6c6"
           id="path1029" />
      </g>
      <g
         id="g1045">
        <g
           id="g1035">
          <path
             d="m 187.015,354.043 c -4.143,0 -7.5,-3.357 -7.5,-7.5 v -12.62 c 0,-4.143 3.357,-7.5 7.5,-7.5 4.143,0 7.5,3.357 7.5,7.5 v 12.62 c 0,4.143 -3.357,7.5 -7.5,7.5 z"
             id="path1033" />
        </g>
        <g
           id="g1039">
          <path
             d="m 255.998,362.252 c -9.139,0 -17.828,-3.958 -23.841,-10.859 -2.722,-3.123 -2.396,-7.86 0.728,-10.581 3.123,-2.723 7.86,-2.396 10.581,0.728 3.164,3.631 7.731,5.713 12.532,5.713 4.801,0 9.368,-2.082 12.532,-5.713 2.721,-3.125 7.458,-3.448 10.581,-0.728 3.123,2.72 3.449,7.458 0.728,10.581 -6.013,6.901 -14.702,10.859 -23.841,10.859 z"
             id="path1037" />
        </g>
        <g
           id="g1043">
          <path
             d="m 342.041,353.691 c -4.143,0 -7.5,-3.357 -7.5,-7.5 0,-3.929 -3.196,-7.125 -7.124,-7.125 -3.929,0 -7.125,3.196 -7.125,7.125 0,4.143 -3.357,7.5 -7.5,7.5 -4.143,0 -7.5,-3.357 -7.5,-7.5 0,-12.2 9.925,-22.125 22.125,-22.125 12.199,0 22.124,9.925 22.124,22.125 0,4.143 -3.358,7.5 -7.5,7.5 z"
             id="path1041" />
        </g>
      </g>
      <path
         sodipodi:nodetypes="ccccsssscccscsssccccsscccsssccccccccccsssscccsssscccsssscccsssscccsssscccssssccccccccccssssccssssccsssscsscssssccssssccssssccccsccccccccccsccccssccscsccscccccssscscccscsccssccccssssccsscsscsccscscss"
         d="m 422.632,257.205 -12.18,-12.334 c -0.109,-1.104 -0.269,-2.208 -0.487,-3.308 -2.782,-14.034 -13.208,-24.679 -26.287,-28.498 V 107.133 C 383.678,48.06 335.618,0 276.545,0 H 232.784 C 173.712,0 125.652,48.06 125.652,107.133 v 106.818 c -11.816,4.416 -21.029,14.542 -23.621,27.609 -0.219,1.101 -0.378,2.206 -0.487,3.31 l -12.18,12.334 c -13.127,13.293 -14.437,33.881 -4.035,48.645 -4.462,12.975 -6.729,26.534 -6.729,40.336 v 3.452 c 0,28.501 9.957,56.425 28.036,78.629 14.394,17.678 33.376,31.106 54.528,38.805 -4.93,4.641 -8.849,10.409 -11.297,16.987 l -0.103,0.275 c -2.343,6.293 -1.454,13.343 2.378,18.857 3.831,5.516 10.128,8.808 16.843,8.808 H 343.01 c 6.669,0 12.94,-3.257 16.777,-8.712 3.836,-5.454 4.78,-12.458 2.525,-18.733 -2.565,-7.139 -6.838,-13.336 -12.251,-18.206 20.561,-7.868 38.988,-21.172 52.982,-38.514 17.853,-22.124 27.685,-49.895 27.685,-78.196 v -3.452 c 0,-12.935 -2.009,-25.657 -5.932,-37.886 12.391,-14.857 11.705,-37.049 -2.164,-51.094 z m -10.878,43.15 c -4.82,4.758 -11.437,7.078 -18.076,6.539 v -28.489 c 4.071,-2.636 7.632,-6.004 10.423,-9.973 1.228,-1.746 2.276,-3.568 3.163,-5.442 l 4.695,4.754 c 8.933,9.048 8.842,23.678 -0.205,32.611 z M 362.626,74.301 h -71.297 c -3.534,0 -6.41,-2.876 -6.41,-6.41 v -0.694 c 0,-3.534 2.876,-6.41 6.41,-6.41 h 64.815 c 2.511,4.296 4.683,8.813 6.482,13.514 z m 6.052,56.002 h -77.349 c -3.534,0 -6.41,-2.876 -6.41,-6.41 V 123.2 c 0,-3.535 2.876,-6.411 6.41,-6.411 h 77.349 z m 0,56.003 h -77.349 c -3.534,0 -6.41,-2.876 -6.41,-6.411 v -0.693 c 0,-3.534 2.876,-6.41 6.41,-6.41 h 77.349 z M 153.186,60.786 h 67.481 c 3.534,0 6.41,2.876 6.41,6.41 v 0.694 c 0,3.534 -2.876,6.41 -6.41,6.41 h -73.963 c 1.799,-4.7 3.971,-9.217 6.482,-13.514 z m -12.534,112.005 h 80.015 c 3.534,0 6.41,2.876 6.41,6.41 v 0.693 c 0,3.535 -2.876,6.411 -6.41,6.411 h -80.015 z m 0,-56.003 h 80.015 c 3.534,0 6.41,2.876 6.41,6.411 v 0.693 c 0,3.534 -2.876,6.41 -6.41,6.41 H 140.652 Z M 116.744,244.48 c 2.291,-11.547 13.905,-19.477 25.887,-17.688 52.841,7.964 136.98,7.866 190.325,4.589 4.135,-0.255 -7.966,-2.57 -8.22,-6.704 -0.255,-4.134 10.832,-8.452 6.704,-8.22 -52.291,3.217 -134.774,3.309 -186.581,-4.498 -1.411,-0.211 -2.814,-0.335 -4.207,-0.393 v -10.261 h 80.015 c 11.806,0 21.41,-9.605 21.41,-21.411 v -0.693 c 0,-11.806 -9.604,-21.41 -21.41,-21.41 h -80.015 v -12.488 h 80.015 c 11.806,0 21.41,-9.604 21.41,-21.41 V 123.2 c 0,-11.806 -9.604,-21.411 -21.41,-21.411 h -79.856 c 0.244,-4.245 0.777,-8.414 1.579,-12.487 h 78.276 c 11.806,0 21.41,-9.604 21.41,-21.41 v -0.694 c 0,-11.806 -9.604,-21.41 -21.41,-21.41 H 164.11 C 180.993,26.906 205.523,15 232.784,15 h 43.761 c 27.261,0 51.791,11.906 68.675,30.786 h -53.891 c -11.806,0 -21.41,9.604 -21.41,21.41 v 0.694 c 0,11.806 9.604,21.41 21.41,21.41 h 75.61 c 0.802,4.074 1.335,8.242 1.579,12.487 h -77.19 c -11.806,0 -21.41,9.605 -21.41,21.411 v 0.693 c 0,11.806 9.604,21.41 21.41,21.41 h 77.349 v 12.488 h -77.349 c -11.806,0 -21.41,9.604 -21.41,21.41 v 0.693 c 0,11.806 9.604,21.411 21.41,21.411 h 77.349 v 10.46 c -0.515,0.056 -1.031,0.117 -1.548,0.194 -11.812,1.78 -23.82,3.294 -35.689,4.5 -4.121,0.419 -7.122,4.1 -6.704,8.22 0.418,4.12 4.109,7.115 8.22,6.704 12.109,-1.23 24.359,-2.775 36.403,-4.591 11.976,-1.798 23.603,6.139 25.893,17.689 1.044,5.258 -0.171,10.699 -3.421,15.321 -3.642,5.178 -9.482,8.711 -16.03,9.694 -79.497,11.979 -160.11,11.979 -239.609,-0.001 -6.544,-0.982 -12.385,-4.516 -16.026,-9.693 -3.251,-4.618 -4.466,-10.06 -3.422,-15.32 z m -16.706,23.264 4.695,-4.754 c 0.886,1.874 1.935,3.696 3.163,5.442 2.164,3.077 4.791,5.792 7.757,8.088 v 30.429 c -5.745,-0.196 -11.269,-2.503 -15.41,-6.593 -9.048,-8.934 -9.14,-23.564 -0.205,-32.612 z M 93.6,349.639 v -3.452 c 0,-9.937 1.35,-19.723 3.984,-29.203 5.494,3.124 11.705,4.836 18.067,4.968 v 7.12 c 0,21.833 6.355,43.016 18.381,61.259 1.441,2.16108 18.67649,23.08979 21.11449,23.71681 1.37234,0.35294 8.61151,-10.31981 9.88251,-11.15781 -3.09557,-1.28707 -17.24454,-16.93233 -18.473,-20.815 -10.404,-15.785 -15.904,-34.113 -15.904,-53.003 v -45.394 c 1.09,0.26 2.192,0.485 3.309,0.652 40.493,6.103 81.26,9.153 122.038,9.152 40.769,0 81.551,-3.051 122.032,-9.151 0.217,-0.033 0.43,-0.078 0.646,-0.114 v 44.855 c 0,53.23 -43.134,96.536 -96.151,96.536 h -55.724 c -22.516,0 -44.454,-8.068 -61.773,-22.718 -3.164,-2.676 -7.896,-2.279 -10.57,0.883 -2.675,3.163 -2.279,7.896 0.883,10.57 14.149,11.967 30.977,20.114 48.823,23.877 v 16.529 h -12.1 c -4.507,0 -8.91,0.69 -13.092,1.972 C 129.456,445.327 93.6,400.439 93.6,349.639 Z M 219.165,454.75 v -14.435 c 2.538,0.178 5.083,0.294 7.638,0.294 h 55.724 c 2.568,0 5.114,-0.096 7.639,-0.268 v 14.41 h -71.001 z m 128.353,39.909 C 346.472,496.146 344.829,497 343.01,497 H 168.985 c -1.831,0 -3.479,-0.862 -4.524,-2.366 -1.045,-1.504 -1.278,-3.351 -0.644,-5.055 l 0.103,-0.275 c 4.354,-11.695 15.665,-19.554 28.146,-19.554 h 127.868 c 12.633,0 23.991,7.988 28.263,19.877 0.614,1.711 0.367,3.545 -0.679,5.032 z m 68.21,-145.02 c 0,50.143 -35.202,94.792 -83.89,106.725 -3.821,-1.053 -7.818,-1.614 -11.905,-1.614 h -14.769 v -16.47 c 50.47,-10.521 88.513,-55.489 88.513,-109.208 v -7.161 c 0.63,0.031 1.261,0.069 1.89,0.069 5.732,0 11.379,-1.298 16.521,-3.771 2.413,9.098 3.64,18.473 3.64,27.979 z"
         id="path1047" />
    </g>
  </g>
</svg>
